<svg viewBox="0 0 64 64" xml:space="preserve" xmlns="http://www.w3.org/2000/svg" enable-background="new 0 0 64 64"><path d="M58 62H6l-4-9v-1h60v1z" fill="#ffffff" class="fill-cf9e76"></path><path d="M5.111 60 6 62h52l.889-2z" fill="#ffffff" class="fill-b27946"></path><path d="M52.19 33.709 35.514 19.307a5.38 5.38 0 0 0-7.028 0l-7.224 6.239a1.413 1.413 0 0 0-.414 1.52c.098.293.152.607.152.934a3 3 0 0 1-3 3 3 3 0 0 1-3 3 2.93 2.93 0 0 1-1.493-.407c-.543-.319-1.219-.296-1.697.116-2.232 1.928-3.695 4.664-3.803 7.611C7.791 47.181 12.478 52 18.29 52h27.42c5.812 0 10.499-4.819 10.283-10.679-.109-2.948-1.571-5.684-3.803-7.612z" fill="#101010" class="fill-e6e9ed"></path><path d="M12.21 50a10.23 10.23 0 0 0 6.081 2H45.71c2.277 0 4.376-.747 6.081-2H12.21z" fill="#101010" class="fill-ccd1d9"></path><path d="M52.13 51a11.47 11.47 0 0 0 1.71-1.456 11.204 11.204 0 0 0 3.152-8.261c-.115-3.116-1.628-6.152-4.149-8.331L36.167 18.551a6.374 6.374 0 0 0-8.334 0l-7.225 6.239a2.404 2.404 0 0 0-.709 2.591c.067.2.101.408.101.619 0 1.103-.897 2-2 2h-1v1c0 1.103-.897 2-2 2-.351 0-.683-.091-.986-.27-.925-.543-2.074-.454-2.856.222-2.521 2.179-4.034 5.215-4.149 8.331a11.208 11.208 0 0 0 3.152 8.261A11.47 11.47 0 0 0 11.871 51H1v2.212L5.351 63H58.65L63 53.212V51H52.13zm-40.529-2.844a9.228 9.228 0 0 1-2.595-6.799c.096-2.563 1.355-5.075 3.459-6.892a.377.377 0 0 1 .253-.092c.103 0 .205.035.282.081A3.935 3.935 0 0 0 15 35a4.007 4.007 0 0 0 3.898-3.102A4.007 4.007 0 0 0 22 28a3.96 3.96 0 0 0-.203-1.252.413.413 0 0 1 .119-.445l7.224-6.238c1.59-1.373 4.131-1.373 5.721 0l16.676 14.401c2.103 1.816 3.362 4.328 3.458 6.892a9.224 9.224 0 0 1-2.595 6.799A9.218 9.218 0 0 1 45.71 51H18.29a9.212 9.212 0 0 1-6.689-2.844zM57.351 61H6.649l-3.555-8h57.811l-3.554 8z" fill="#ffffff" class="fill-000000"></path><path d="M49 43h2c0-3.862-4.334-7.35-8.923-11.042C37.614 28.367 33 24.654 33 21h-2c0 4.612 4.994 8.631 9.823 12.517C44.844 36.751 49 40.096 49 43zM25 28c0 3.854-1.355 4.913-3.231 6.38C19.199 36.39 16 38.892 16 49h2c0-9.134 2.657-11.211 5.001-13.045C24.967 34.418 27 32.828 27 28h-2zM30.293 41.793C28.749 43.336 27 45.086 27 49h2c0-3.086 1.255-4.34 2.707-5.793C33.251 41.664 35 39.914 35 36h-2c0 3.086-1.255 4.34-2.707 5.793zM10 30h2c0-2.056.82-3.046 1.771-4.193C14.815 24.544 16 23.113 16 20.338c0-2.777-1.185-4.209-2.229-5.473C12.82 13.718 12 12.726 12 10.669c0-2.058.82-3.049 1.771-4.197C14.815 5.208 16 3.777 16 1h-2c0 2.057-.82 3.049-1.771 4.196C11.185 6.46 10 7.892 10 10.669s1.185 4.208 2.229 5.472C13.18 17.289 14 18.28 14 20.338c0 2.056-.82 3.046-1.771 4.193C11.185 25.794 10 27.225 10 30zM32 12.828V15h2v-2.172a7.882 7.882 0 0 0-2.293-5.535A5.868 5.868 0 0 1 30 3.172V1h-2v2.172c0 2.061.836 4.078 2.293 5.535A5.868 5.868 0 0 1 32 12.828zM20.342 17.746C19.298 18.659 18 19.796 18 22h2c0-1.236.6-1.821 1.658-2.748 1.044-.913 2.342-2.05 2.342-4.254 0-2.203-1.298-3.34-2.341-4.253C20.6 9.818 20 9.233 20 7.997c0-1.235.6-1.82 1.658-2.746C22.702 4.338 24 3.203 24 1h-2c0 1.235-.6 1.819-1.658 2.745C19.299 4.658 18 5.794 18 7.997c0 2.204 1.299 3.341 2.342 4.254C21.4 13.178 22 13.762 22 14.998s-.6 1.821-1.658 2.748z" fill="#ffffff" class="fill-000000"></path></svg>