<svg version="1.0" viewBox="0 0 256 256" xmlns="http://www.w3.org/2000/svg"><path d="M129.5 15.8C105.7 36.5 47.1 94 21.3 121.9 10 134.1 8 136.8 8 139.5c0 4.7 5.1 13.8 13.3 23.9 3.9 4.9 7.6 9.4 8.1 10.1.7.9-2.1 4.1-9.2 11-15.6 14.9-16.1 19.4-3.3 31.8 7.3 7.1 8.2 7.7 12 7.7 6 0 8.5-1.6 18.9-12.4l9.3-9.7 11.7 11.2c21.3 20.3 39.4 33.6 47.4 34.7 3.7.5 3.9.3 26-21.4 48.9-48.2 105.8-107.3 105.8-110 0-2-2.6-6.9-6.4-12.2l-3-4.3 3.6-3.2c6.6-5.8 7.4-10.2 2.8-14.9-2.6-2.5-3.6-2.9-6.3-2.4-1.7.4-4.8 2.3-6.9 4.3l-3.7 3.6-2.4-2.9-2.5-2.9 4.4-4.7c5.2-5.5 6.1-8.5 4-12.6-3.1-6-8.9-5.9-15.5.3l-4.8 4.5-2.8-3-2.8-3 5.1-5.4c6.1-6.5 6.6-9.3 2.3-13.7-4.3-4.3-7.2-3.8-13.5 2.1l-5.2 4.9-3.5-2.8-3.4-2.9 4.3-4.6c5.9-6.4 5.7-12.1-.6-15.5-3.4-1.8-7.1-.5-12 4.2l-4.2 4.1-3.2-3.2-3.2-3.2 3.4-3.5c4.5-4.6 4.7-9.6.6-13.1-4.3-3.8-8.1-3-14.2 2.8l-3.2 3-6.8-4.1C144.7 9.8 140.9 8 140 8c-.9 0-5.6 3.5-10.5 7.8zm13.3 11c.9.6.5 1.5-1.4 3.3-5.8 5.3-6.3 11.8-1.2 15.3 4.1 2.9 7.5 2 13.3-3.5l5.3-5 3.4 3 3.3 3-4.4 4.5c-5.6 5.7-6.2 10.4-1.7 14.2 4.4 3.8 7.9 3.2 14-2.6l5.3-5 2.6 2.8c1.5 1.6 2.7 3.3 2.7 3.8s-1.8 2.7-3.9 4.8c-4.7 4.6-5.7 7.6-3.7 11.5 1.6 3.1 6.5 5.4 9.4 4.4.9-.3 3.7-2.5 6.2-5l4.6-4.3 2.9 3 2.8 2.9-4.6 5c-3.7 3.9-4.7 5.8-4.7 8.3 0 4.3 2.3 7.5 5.9 8.3 3.6.8 6.3-.5 11.4-5.4l3.8-3.6 2.5 3 2.4 3-3.7 3.4c-7.7 7.1-9 11.1-4.9 15.7 3.6 4.3 8.5 3.9 13.6-1.1 3.4-3.3 4.2-3.7 5-2.5 2.3 3.5 1 6.9-4.7 13.3-15.2 16.7-44.3 46.2-67.8 68.6-29.7 28.4-40.6 38.1-42.7 38.1-2.1 0-12.3-6.8-20.4-13.6-11.9-10-27.4-24.6-27.4-25.8 0-1.3 36.9-38.1 52.8-52.6 5.7-5.2 11-10.7 11.8-12.2 3.2-6.2 13.4-38.2 12.5-39.1-1-1-16 3.8-33.2 10.4-7.1 2.7-8.3 3.6-16 12.2-17.5 19.3-34.4 37-43.9 45.7l-9.8 9.1-6.5-8.3c-7-9-9.7-13.6-9.7-16.6 0-2.2 38-42 81.2-85C131.4 30.2 136 26 138.5 26c1.7 0 3.6.4 4.3.8zM117 108.3c0 1.6 5.2 6.7 6.8 6.7.7 0 1.2.5 1.2 1 0 3.1-4.7 8.3-24.1 27-11.6 11.2-31.1 31.3-43.2 44.5-20.5 22.4-26 27.5-29.6 27.5-2.1 0-11.1-9.4-11.1-11.6 0-3.6 3.5-7.3 26-27.7 12.4-11.2 32.4-30.6 44.5-43.1 12.1-12.5 23.1-23.3 24.5-24.1 3.2-1.8 5-1.9 5-.2z" fill="#ffffff" class="fill-000000"></path></svg>